<svg version="1.1" xmlns="http://www.w3.org/2000/svg" xmlns:xlink="http://www.w3.org/1999/xlink" width="690.69069" height="504.5045" viewBox="0,0,690.69069,504.5045"><g transform="translate(51.29129,60.24024)"><g data-paper-data="{&quot;isPaintingLayer&quot;:true}" fill-rule="nonzero" stroke="none" stroke-linecap="butt" stroke-linejoin="miter" stroke-miterlimit="10" stroke-dasharray="" stroke-dashoffset="0" style="mix-blend-mode: normal"><path d="M-51.29129,444.26426v-504.5045h690.69069v504.5045z" fill="#000000" stroke-width="0"/><g fill="#ffffff" stroke-width="0.5"><path d="M149.48149,198.49993c-2.49993,-0.01851 -2.48142,-2.51844 -2.48142,-2.51844l0.03641,-3.35399c0.43987,-1.96669 0.31279,-4.15432 1.3196,-5.90008c0.94768,-1.64323 6.88246,-5.8697 8.55715,-7.00697c1.59228,-1.08132 3.03732,-2.50376 4.86296,-3.11337c1.51002,-0.50422 3.1829,-0.08893 4.7748,-0.10485c3.41164,-0.03411 6.8275,0.17521 10.22257,0.51267c8.16905,0.8403 16.39177,3.41287 23.31231,7.86569c1.54577,0.99458 3.30538,1.72702 4.61766,3.01409c1.31228,1.28707 2.09218,3.02318 3.10309,4.55833c1.05559,1.60299 2.45368,3.04625 3.0957,4.85502c0.99218,2.79529 -0.0417,5.93259 -0.12379,8.8976c-0.13885,5.01483 -0.33972,10.87802 -1.94406,15.68894c-0.90025,2.69957 -3.00585,4.83315 -4.54094,7.22932c-5.32441,8.31105 -14.11961,13.7648 -22.24653,19.18274c-4.52356,2.98742 -8.37239,4.245 -13.49694,5.91712c-0.49599,0.16184 -9.64371,3.15822 -9.91779,3.19861c-6.40763,0.94412 -14.4026,-0.1125 -20.7189,-1.22254c-0.61182,-0.10752 -9.97823,-1.74716 -10.30956,-1.86597c-2.93222,-1.05137 -5.3073,-3.26291 -7.94882,-4.91386c-0.39648,-0.2478 -8.59124,-5.35938 -8.78011,-5.52026c-0.18484,-0.15744 -6.46982,-7.42285 -6.71479,-7.70551c-4.26962,-4.92648 -7.36813,-9.02691 -10.25137,-14.83485c-2.1497,-4.33032 -5.45625,-9.21212 -6.8274,-13.83649c-1.37116,-4.62436 -1.26006,-10.51953 -1.81822,-15.32175c-1.71537,-14.75836 -0.56053,-28.85037 2.1727,-43.4018c0.06242,-0.33233 1.85848,-9.91864 1.90896,-10.08652c1.92571,-6.40417 5.34381,-12.73601 7.95326,-18.89656c3.37249,-5.09658 6.49136,-10.66567 10.30069,-15.43954c1.66072,-2.08123 3.90105,-3.62491 5.85755,-5.43091c0.35323,-0.32606 7.42484,-6.86543 7.64005,-7.01453c0.1953,-0.1353 8.70237,-4.20147 8.75324,-4.22585c7.65413,-3.66828 15.79273,-7.17252 24.34499,-8.18669c5.14845,-0.61053 9.90119,0.94156 14.84778,2.0408c0,0 2.44047,0.54233 1.89814,2.98279c-0.54233,2.44047 -2.98279,1.89814 -2.98279,1.89814c-4.26938,-0.94875 -8.70803,-2.53033 -13.15222,-1.9592c-8.04312,1.03364 -15.58354,4.27695 -22.79499,7.73307c-2.69827,1.29316 -5.65012,2.14626 -8.10679,3.85439c-2.63507,1.83218 -4.69772,4.37418 -7.05602,6.55107c-1.81149,1.67214 -3.91951,3.06798 -5.44638,5.00349c-3.57105,4.52679 -6.47861,9.77121 -9.69931,14.56046c-2.45738,5.8749 -5.73732,11.87735 -7.56902,17.96885c-0.93438,3.10737 -1.18411,6.38069 -1.78311,9.56974c-2.64037,14.05708 -3.77734,27.64409 -2.1202,41.90152c0.52448,4.51243 0.35593,10.12888 1.64537,14.47764c1.28944,4.34876 4.49223,8.96559 6.5122,13.03459c2.72043,5.47999 5.51558,9.12686 9.5513,13.78346c2.06919,2.38753 3.7807,5.13291 6.1866,7.18071c2.44412,2.08034 5.45812,3.37864 8.17985,5.07972c2.37189,1.48243 4.45315,3.5566 7.09121,4.48616c2.99395,1.05496 6.26043,1.05579 9.38611,1.60974c5.80555,1.02891 13.23564,2.06705 19.12112,1.19986c3.15899,-0.46546 6.06005,-2.01488 9.09564,-3.00537c4.71709,-1.53916 8.15571,-2.5485 12.27443,-5.32401c7.4816,-4.98773 15.94892,-10.02534 20.80172,-17.70687c1.34236,-2.12482 3.32567,-3.93989 4.09031,-6.33407c1.37566,-4.30739 1.49642,-9.56603 1.61484,-14.03527c0.04414,-1.66608 0.06385,-3.33304 0.13546,-4.99816c0.03419,-0.79492 0.46981,-1.63831 0.18185,-2.38002c-0.51209,-1.31902 -1.65784,-2.29396 -2.4513,-3.46548c-0.8386,-1.23816 -1.37628,-2.71505 -2.44391,-3.76217c-1.06763,-1.04712 -2.54578,-1.56992 -3.80887,-2.37048c-6.28452,-3.98321 -13.70656,-6.38633 -21.11754,-7.10377c-3.23036,-0.32509 -6.48141,-0.44474 -9.7278,-0.48785c-1.10865,-0.01472 -2.27559,-0.46876 -3.32445,-0.10929c-2.8595,0.98001 -4.97808,3.43455 -7.37988,5.26991c-1.08227,0.82702 -2.47408,1.40916 -3.16754,2.58151c-0.67156,1.13533 -0.44451,2.60043 -0.66676,3.90065l-0.0097,2.87351c0,0 -0.01851,2.49993 -2.51844,2.48142z"/><path d="M344.69714,154.80727c1.19273,2.19714 -1.00441,3.38986 -1.00441,3.38986l-2.38946,1.29713c-1.46476,0.79515 -2.90748,1.6323 -4.39427,2.38545c-0.3147,0.15942 -0.65687,0.28021 -1.00543,0.3912c0.01597,0.07936 0.03188,0.15871 0.04775,0.23807c0.75098,3.75675 1.49286,7.49234 2.25582,11.21306c0.98122,0.47514 2.14754,0.6382 3.16589,1.05684c2.80463,1.15297 4.34783,1.83675 6.52814,2.81215c0.42393,-3.2797 0.98135,-6.55541 1.50011,-9.79762c0.06073,-0.37957 1.59073,-9.97895 1.64622,-10.17155c1.36679,-4.74397 4.04064,-9.54148 5.97599,-14.0889c3.37563,-7.93158 6.75972,-15.29936 11.2672,-22.65583c2.53265,-4.13344 4.90536,-9.48044 8.08393,-13.1267c0.1573,-0.18045 7.65565,-6.32637 8.03407,-6.62963c1.02373,-0.8204 1.87425,-1.96448 3.10523,-2.4181c3.28688,-1.21122 12.2137,-2.02581 15.28147,0.02379c1.8331,1.22471 2.94454,3.39643 3.7474,5.44962c0.68133,1.74238 0.37802,3.72256 0.56704,5.58384c0.0399,0.45412 0.8947,10.08718 0.88067,10.32667c-0.28589,4.87962 -2.10176,10.25528 -3.0969,15.0488c-0.05475,0.26371 -1.96544,9.5273 -2.068,9.78199c-1.81253,4.50116 -5.46116,9.04207 -7.9893,13.19544c-0.29843,0.49028 -5.27374,8.68975 -5.47954,8.91764c-0.2058,0.22789 -7.85712,6.01081 -8.31453,6.35753c-2.65643,2.01358 -5.29023,4.05735 -7.96929,6.04073c-0.87533,0.64803 -1.61842,1.57771 -2.65926,1.89831c-1.80892,0.55718 -3.75843,0.45322 -5.6401,0.65805c-4.25528,0.46323 -8.5179,0.86129 -12.78195,1.23605c-0.14412,2.87406 0.45208,5.74107 0.64579,8.61343c0.27076,4.01481 1.19779,9.31765 3.84843,12.62851c0.91053,1.13732 2.38421,1.67578 3.55094,2.54831c1.15656,0.86492 2.07127,2.14036 3.41758,2.66301c1.34631,0.52265 2.88097,0.20938 4.31921,0.34047c6.00741,0.54755 11.62338,-0.16125 17.64204,-0.68517c4.95903,-0.43168 9.70942,-0.80004 14.5941,-1.78117c0,0 2.45145,-0.49029 2.94174,1.96116c0.49029,2.45145 -1.96116,2.94174 -1.96116,2.94174c-5.06761,1.00941 -9.99914,1.41183 -15.14107,1.85943c-6.31219,0.54947 -12.25978,1.35723 -18.57317,0.67919c-1.87889,-0.20179 -3.86956,0.02931 -5.63116,-0.65456c-1.76161,-0.68387 -3.08212,-2.18786 -4.59781,-3.31641c-1.50541,-1.12089 -3.29145,-1.96595 -4.46445,-3.43112c-1.173,-1.46517 -1.59855,-3.39653 -2.37112,-5.10702c-2.87867,-6.37341 -3.32879,-13.04968 -2.83924,-19.77374c-2.76741,-1.12648 -4.94563,-2.01207 -7.95438,-3.32643c-0.01026,-0.00448 -0.02053,-0.00895 -0.03081,-0.0134c1.56717,7.33512 3.27673,14.62454 5.36244,21.91707c1.38265,4.83435 2.76114,9.65578 4.00574,14.52778l1.16698,4.56911c0,0 0.61866,2.42224 -1.80359,3.0409c-2.42224,0.61866 -3.0409,-1.80359 -3.0409,-1.80359l-1.16698,-4.56911c-1.23235,-4.82608 -2.59891,-9.60152 -3.9685,-14.39019c-2.4766,-8.65924 -4.48487,-17.39715 -6.33087,-26.17373c-1.09633,-1.20221 -1.75344,-2.80535 -2.64196,-4.18546c-2.62014,-4.06981 -5.1331,-6.33758 -1.68316,-11.68331c0.06963,-0.10789 0.4267,-0.35557 0.96599,-0.68956c-0.70863,-3.54121 -1.42206,-7.08461 -2.16019,-10.62761c-1.23999,-5.95195 -2.12187,-11.81444 -2.84512,-17.77021c0.26138,10.78421 0.71041,21.55576 1.25053,32.35816c0.56388,11.2776 1.86868,23.53424 -0.72945,34.56019c-2.75595,6.54063 -1.90862,10.65462 -9.47857,2.53889c-1.28281,-1.3753 -1.38654,-3.49659 -2.06148,-5.25201c-1.82413,-4.74426 -3.5472,-9.45021 -4.99381,-14.3229c-4.31407,-14.53126 -7.23778,-29.15926 -10.20505,-44.01861c-0.14111,-0.70666 -0.29641,-1.44525 -0.45789,-2.20847c-0.06406,7.10804 0.1495,14.25952 0.29789,21.34979c0.75637,0.10001 1.93078,0.52621 2.11558,2.18941c0.23024,2.0722 -1.4597,2.60824 -2.02718,2.72912c0.02623,1.85553 0.04247,3.70515 0.04247,5.54696c0,15.76411 -0.13068,31.52388 1.29482,47.24489c0.25137,2.77224 0.65971,5.52759 1.02011,8.28819c0.21865,-1.61572 0.50224,-3.22616 0.70437,-4.84317c0,0 0.31009,-2.48069 2.79078,-2.17061c2.48069,0.31009 2.17061,2.79078 2.17061,2.79078c-0.32691,2.61529 -0.83989,5.21364 -0.98553,7.84526c-0.10259,1.85385 0.67371,3.88244 -0.10244,5.56912c-0.9276,2.0158 -2.47622,5.19971 -4.65164,4.7621c-2.49917,-0.50274 -3.07635,-4.13794 -4.01929,-6.50638c-0.03968,-0.09966 -1.2479,-9.93793 -1.28526,-10.24087c-2.15731,-17.49186 -1.93655,-35.14983 -1.93655,-52.73931c0,-1.65326 -0.01244,-3.31231 -0.03303,-4.97591c-9.57106,1.21255 -18.54024,5.52948 -27.96827,7.74763c1.2604,19.35464 2.73885,38.69323 3.87781,58.05559l0.11917,2.02588c0,0 0.14681,2.49569 -2.34888,2.64249c-2.49569,0.14681 -2.64249,-2.34888 -2.64249,-2.34888l-0.11917,-2.02588c-1.12629,-19.14699 -2.58474,-38.27073 -3.83575,-57.40975c-7.72669,1.11715 -15.78089,1.0023 -23.69673,0.87504c-1.09228,5.97719 -2.12737,11.96602 -3.06698,17.97955c-2.15969,13.822 -3.66361,28.09818 -1.3197,42.02324c0,0 0.411,2.46598 -2.05499,2.87698c-2.46598,0.411 -2.87698,-2.05499 -2.87698,-2.05499c-2.39023,-14.47428 -0.93353,-29.24826 1.31161,-43.61712c0.9029,-5.77857 1.89338,-11.5345 2.93792,-17.27921c-0.93148,-0.00909 -1.85959,-0.01466 -2.78355,-0.01466c0,0 -2.5,0 -2.5,-2.5c0,-2.5 2.5,-2.5 2.5,-2.5c1.22731,0 2.46257,0.0106 3.70375,0.02663c1.37724,-7.36619 2.82755,-14.71937 4.28007,-22.08372c2.71398,-13.76003 4.90398,-27.80462 6.53366,-41.73806c1.38397,-11.83266 1.50454,-23.58573 5.28026,-34.9957l0.81162,-2.44275c0.31346,-1.02274 1.2652,-1.76641 2.39064,-1.76641c1.22888,0 2.25067,0.88665 2.46053,2.05512l0.9715,4.85749c0.91302,2.54531 1.2512,7.47456 1.51874,10.11678c0.67045,6.6215 1.31345,13.24454 2.0753,19.85623c2.43134,21.10011 4.76772,42.23701 6.09284,63.43896c0.01886,0.30183 0.0378,0.60366 0.05679,0.90548c9.49428,-2.28158 18.51284,-6.56108 28.20888,-7.73076c-0.2622,-13.42029 -0.77305,-27.05212 0.68286,-40.24479l0.44451,-4.0006c0.12362,-1.2652 1.19037,-2.2539 2.48804,-2.2539c1.1246,0 2.07576,0.74256 2.38994,1.76412l1.56291,4.68873l-0.03436,0.01145c0.03686,0.08507 0.07271,0.17066 0.10749,0.25681c1.61313,3.99569 0.7876,10.1057 1.44659,14.40951c1.9651,12.83394 4.51683,26.33533 8.21051,38.77201c1.88407,6.3437 3.64035,12.69706 5.96819,18.89355c1.09709,2.92036 2.08343,5.88209 3.2114,8.79066c0.30008,0.77379 0.55561,2.95831 1.02074,2.27096c0.5809,-0.85845 -0.31887,-2.04837 -0.4783,-3.07255c2.54739,-10.48611 1.13576,-22.40587 0.59866,-33.14793c-0.86992,-17.39844 -1.50374,-34.71799 -1.50374,-52.13732v-5c0,-1.38071 1.11929,-2.5 2.5,-2.5c0.69036,0 1.31536,0.27982 1.76777,0.73223l3,3l-0.04181,0.04181c0.1925,0.2036 0.37118,0.42111 0.53322,0.65538c1.10782,1.60163 0.50616,3.86202 0.72594,5.797c0.75167,6.61783 1.37139,13.2555 2.06626,19.87987c0.80089,7.63514 2.64385,15.17288 4.29973,22.699c1.88885,-1.03732 3.63357,-1.97017 4.06671,-2.2053l2.38946,-1.29713c0,0 2.19714,-1.19273 3.38986,1.00441zM352.55578,178.27868c5.29153,-0.38358 11.13893,-0.27979 16.03055,-1.60574c0.61548,-0.16684 0.9633,-0.83677 1.46624,-1.22883c2.62892,-2.04936 5.31286,-4.02716 7.96929,-6.04073c2.53253,-1.91966 5.49421,-3.36541 7.62404,-5.72394c2.12984,-2.35852 3.26708,-5.4518 4.9194,-8.16633c2.37957,-3.90929 5.89604,-8.19352 7.60911,-12.43051c1.14288,-2.82674 1.20379,-5.97812 1.82356,-8.96351c0.94515,-4.55277 2.7294,-9.68796 3.00107,-14.32491c0.18786,-3.20647 -0.58888,-6.39691 -0.87004,-9.59655c-0.13947,-1.98028 0.25595,-5.84831 -2.06043,-7.28012c-1.56219,-0.96563 -4.60485,-0.25088 -6.29709,-0.05698c-1.42652,0.16345 -2.9274,-0.02968 -4.28537,0.43678c-0.80367,0.27606 -1.25785,1.14349 -1.90802,1.69064c-2.44428,2.05697 -5.33529,3.63993 -7.43451,6.04803c-2.99555,3.43631 -5.20449,8.56082 -7.58955,12.45341c-4.38061,7.14943 -7.64797,14.29024 -10.92988,22.0016c-1.85535,4.35946 -4.46138,8.96581 -5.7721,13.51513c-0.89479,3.10571 -1.00295,6.38581 -1.51359,9.57726c-0.50502,3.15639 -1.25722,6.43967 -1.78268,9.69531zM260.62865,164.13647c-1.4249,-22.79835 -4.1902,-45.46109 -6.64399,-68.16317c-0.69053,-6.38864 -0.99739,-12.88825 -1.91537,-19.24995c-1.79289,8.72539 -2.04303,17.65233 -3.08677,26.57181c-1.64524,14.05968 -3.85466,28.23074 -6.5932,42.1153c-1.39433,7.06934 -2.78691,14.12823 -4.11421,21.19834c7.51672,0.12738 15.14713,0.19791 22.45215,-0.9042c-0.03306,-0.52269 -0.06593,-1.0454 -0.0986,-1.56812z"/><path d="M219,266c0,-1.38071 1.11929,-2.5 2.5,-2.5c1.38071,0 2.5,1.11929 2.5,2.5c0,1.38071 -1.11929,2.5 -2.5,2.5c-1.38071,0 -2.5,-1.11929 -2.5,-2.5z"/><path d="M287,261c0,-1.38071 1.11929,-2.5 2.5,-2.5c1.38071,0 2.5,1.11929 2.5,2.5c0,1.38071 -1.11929,2.5 -2.5,2.5c-1.38071,0 -2.5,-1.11929 -2.5,-2.5z"/><path d="M323.82119,275.07152c0.92848,2.32119 -1.39272,3.24967 -1.39272,3.24967l-0.35762,0.14305c-1.36044,0.51452 -2.84086,0.7841 -4.08132,1.54356c-0.61704,0.37778 -0.84499,1.17512 -1.29042,1.74525c-2.63744,3.37581 -5.42171,6.58548 -7.79849,10.15295c-4.5189,6.78271 -9.00042,13.56759 -13.3284,20.47386c-2.7936,4.45782 -5.29755,8.66082 -8.88188,12.54401c-1.36289,1.47653 -2.3327,3.53463 -4.1662,4.35674c-1.83822,0.82422 -4.02523,0.19736 -6.03966,0.21935c-3.30815,0.03611 -6.62785,-0.90652 -9.68429,-2.17275c-6.37491,-2.64101 -11.85739,-6.62879 -17.51869,-10.55417c-5.12025,-3.55024 -10.38703,-7.05846 -15.02097,-11.22515c-1.07508,-0.96667 -7.83634,-6.92652 -8.15144,-7.81744c-0.6028,-1.70435 0.6437,-3.55785 0.96556,-5.33678c0,0 0.60634,-2.42536 3.0317,-1.81902c2.42536,0.60634 1.81902,3.0317 1.81902,3.0317c-0.34481,0.88774 -1.38992,1.7797 -1.03444,2.66322c0.46393,1.15306 2.04081,1.42417 2.99797,2.21703c1.28351,1.06319 2.47818,2.22929 3.71647,3.34482c4.46996,4.02682 9.58182,7.40514 14.52515,10.8327c7.37387,5.11284 15.13896,11.56961 24.38501,11.83593c1.32159,0.03807 2.75473,0.76207 3.96034,0.21935c1.21033,-0.54484 1.61971,-2.10442 2.47744,-3.11736c3.239,-3.82513 5.71559,-7.62221 8.38213,-11.87728c4.35285,-6.94596 8.85605,-13.77318 13.40495,-20.59226c2.453,-3.6772 5.25983,-7.07891 8.0544,-10.50292c0.726,-0.88952 1.25212,-2.01297 2.21568,-2.63738c1.57712,-1.022 3.46896,-1.44689 5.20345,-2.17034l0.35762,-0.14305c0,0 2.32119,-0.92848 3.24967,1.39272z"/></g></g></g></svg>